# xmcd CD database file
#
# Track frame offsets:
#	150
#	7825
#	32275
#	50260
#	66272
#	83317
#	103865
#	122527
#
# Disc length: 2029 seconds
#
# Revision: 3
# Processed by: cddbd v1.5.1PL0 Copyright (c) Steve Scherf et al.
# Submitted via: CDex 1.51
#
DISCID=4e07eb08
DTITLE=Stan Kenton - Stan Kenton Plays Chicago
DYEAR=1992
DGENRE=Jazz
TTITLE0=Chicago III Suite (Canon)
TTITLE1=Chicago III Suite (Mother)
TTITLE2=Chicago III Suite (Once Upon A Time)
TTITLE3=Chicago III Suite (Free)
TTITLE4=Alone
TTITLE5=Inner Crisis
TTITLE6=First Child
TTITLE7=The Rise And Fall Of A Short Fugue
EXTD=YEAR: 1992
EXTT0=
EXTT1=
EXTT2=
EXTT3=
EXTT4=
EXTT5=
EXTT6=
EXTT7=
PLAYORDER=
